D:\PredSimResults\Vitruvian_Man\IG_v40ms_ATx70.mot
version=1
nRows=15
nColumns=31
inDegrees=yes
endheader
                time	         pelvis_tilt	           pelvis_tx	           pelvis_ty	       hip_flexion_r	        knee_angle_r	       ankle_angle_r	       hip_flexion_l	        knee_angle_l	       ankle_angle_l	    lumbar_extension	          arm_flex_r	          arm_flex_l	hamstrings_r/activation	bifemsh_r/activation	glut_max_r/activation	iliopsoas_r/activation	rect_fem_r/activation	  vasti_r/activation	gastroc_r/activation	 soleus_r/activation	tib_ant_r/activation	hamstrings_l/activation	bifemsh_l/activation	glut_max_l/activation	iliopsoas_l/activation	rect_fem_l/activation	  vasti_l/activation	gastroc_l/activation	 soleus_l/activation	tib_ant_l/activation	
          0.94682524	         -1.08005618	          3.76191022	          1.00558158	         -8.94126560	        -35.81284780	         -9.94560498	         23.15088421	         -8.65593442	          9.72799518	        -10.90759769	         39.76805095	         39.76805095	          0.05000009	          0.99963366	          0.05000004	          0.99991959	          0.99656639	          0.05000003	          0.82639474	          0.09843416	          0.99950609	          0.98476943	          0.30263673	          0.53805896	          0.10070804	          0.06749845	          0.09582627	          0.08707985	          0.06872723	          0.93127017	
          0.95313741	         -0.99602284	          3.78704778	          1.00207433	         -7.47729295	        -37.61677724	         -9.03563325	         22.45491172	         -9.77354048	          9.29682868	        -11.14834286	         38.97570845	         38.97570845	          0.05000006	          0.99974213	          0.05000005	          0.99994339	          0.99758329	          0.05000002	          0.87780902	          0.08906435	          0.99965222	          0.98928035	          0.27382916	          0.67487513	          0.09112179	          0.06107361	          0.08670470	          0.07879083	          0.06218518	          0.95162635	
          0.95944958	         -0.94337683	          3.81183634	          0.99828434	         -5.83250772	        -39.47299493	         -8.12875062	         21.97723593	        -11.54970953	          8.56854620	        -11.39200040	         38.33426922	         38.33426922	          0.05526037	          0.99981846	          0.05000016	          0.99996012	          0.99829894	          0.05000007	          0.91399864	          0.08058649	          0.99975339	          0.99245525	          0.24776374	          0.77116954	          0.08244803	          0.05526012	          0.07845141	          0.07129084	          0.05626585	          0.96595350	
          0.96576174	         -0.92660913	          3.83598208	          0.99459835	         -3.96311370	        -41.37832203	         -7.31180390	         21.84080451	        -13.73287149	          7.38836458	        -11.67544606	         37.84344059	         37.84344059	          0.05000024	          0.99987219	          0.05000003	          0.99997191	          0.99880268	          0.05000003	          0.93940712	          0.07291558	          0.99982629	          0.99468979	          0.22417946	          0.83894379	          0.07459993	          0.05000001	          0.07098373	          0.06450476	          0.05090998	          0.97603728	
          0.97207391	         -0.94262498	          3.85941448	          0.99116739	         -1.87425602	        -43.31057846	         -6.45400570	         22.14317164	        -16.50794854	          5.92318145	        -12.00924967	         37.50429980	         37.50429980	          0.05051413	          0.99991001	          0.05000011	          0.99998019	          0.99915714	          0.05000003	          0.86890607	          0.06597485	          0.99987755	          0.90000663	          0.20284012	          0.88664489	          0.06749887	          0.05000013	          0.34613673	          0.05836464	          0.05526014	          0.94018382	
          0.97838608	         -0.99929969	          3.88240473	          0.98784164	          0.39261797	        -45.22652940	         -5.45492095	         22.73621318	        -19.77285914	          5.20084008	        -12.34002452	         37.31716274	         37.31716274	          0.13517177	          0.99993663	          0.05000004	          0.99998596	          0.99940631	          0.05000003	          0.90773237	          0.06525820	          0.99990873	          0.81433837	          0.18353205	          0.92021803	          0.06107375	          0.05000021	          0.53979581	          0.05280899	          0.05000001	          0.94428946	
          0.98469825	         -1.09710047	          3.90524361	          0.98449921	          2.79705224	        -47.10780902	         -4.49120969	         23.36323434	        -23.12588264	          5.35510428	        -12.62151077	         37.28137229	         37.28137229	          0.39131349	          0.99995536	          0.05000006	          0.99998853	          0.90427572	          0.05000003	          0.93505434	          0.05904639	          0.99993534	          0.73682261	          0.16606188	          0.94384759	          0.05526023	          0.05000003	          0.67609758	          0.05000003	          0.33136790	          0.85440379	
          0.99101042	         -1.23709315	          3.92807019	          0.98113605	          5.32864044	        -48.99847156	         -3.58745968	         23.85832686	        -26.27991531	          6.32025167	        -12.82914580	         37.39693462	         37.39693462	          0.51245798	          0.99996853	          0.05000009	          0.99998518	          0.87530780	          0.05000004	          0.84606504	          0.05342590	          0.99995398	          0.66668549	          0.15025467	          0.96047863	          0.05000010	          0.11130238	          0.77202994	          0.33136789	          0.52940116	          0.77307422	
          0.99732259	         -1.41953020	          3.95089193	          0.97784345	          7.99091429	        -50.96673119	         -2.60903048	         24.16836959	        -29.09911140	          7.70308597	        -12.95935646	         37.66439459	         37.66439459	          0.51970531	          0.99997780	          0.05000008	          0.99998066	          0.87279520	          0.05000004	          0.76553543	          0.05000009	          0.99996662	          0.60322484	          0.13595214	          0.97218394	          0.05000005	          0.10070769	          0.83954937	          0.52940086	          0.66878158	          0.69948630	
          1.00363475	         -1.64510340	          3.97372053	          0.97468745	         10.78266238	        -53.06183829	         -1.58715087	         24.26342502	        -31.45471027	          8.90789165	        -13.00766489	         38.08388637	         38.08388637	          0.52838741	          0.99998432	          0.05000008	          0.98285466	          0.83561272	          0.05000004	          0.69310028	          0.05000013	          0.99996978	          0.54580570	          0.12301104	          0.98042241	          0.05000006	          0.09112148	          0.88707111	          0.66878122	          0.76688077	          0.63290312	
          1.00994692	         -1.91386869	          3.99656334	          0.97171644	         13.69631017	        -55.30348830	         -0.65283046	         24.16963259	        -33.40188822	          9.99250687	        -12.97122396	         38.65568519	         38.65568519	          0.48374642	          0.99998889	          0.05000008	          0.88930440	          0.76064863	          0.05000004	          0.77842670	          0.05000017	          0.90557221	          0.55561178	          0.11130179	          0.98622083	          0.05000005	          0.08244778	          0.92051802	          0.76688043	          0.83592526	          0.57265791	
          1.01625909	         -2.22405572	          4.01944140	          0.96896791	         16.71185526	        -57.66892647	          0.07773442	         23.91628257	        -34.99704265	         10.96239033	        -12.84846420	         39.37975818	         39.37975818	          0.43769952	          0.99999209	          0.05000009	          0.82040630	          0.70941040	          0.05000004	          0.70433832	          0.05000039	          0.81938321	          0.51712871	          0.10070713	          0.99030190	          0.05000005	          0.07459972	          0.94405873	          0.83592497	          0.88452037	          0.51814736	
          1.02257126	         -2.57495804	          4.04238785	          0.96646345	         19.80260982	        -60.11033870	          0.59794529	         23.52421840	        -36.27740735	         11.80618745	        -12.63623082	         40.25572972	         40.25572972	          0.39603557	          0.99999430	          0.05000009	          0.75633606	          0.65735784	          0.05000004	          0.63729483	          0.05000134	          0.76699606	          0.46790445	          0.09112096	          0.99317425	          0.05000004	          0.06749871	          0.96062724	          0.88452014	          0.91872275	          0.46882559	
          1.02888343	         -2.96666235	          4.06543958	          0.96421137	         22.94095041	        -62.58356873	          1.03165885	         23.00744538	        -37.26733211	         12.51808077	        -12.33103293	         41.28394468	         41.28394468	          0.35833751	          0.99999576	          0.05000009	          0.70262891	          0.61448130	          0.05000005	          0.57663226	          0.05000122	          0.77227108	          0.42336539	          0.08244728	          0.99519587	          0.05000004	          0.06107365	          0.97228853	          0.91872256	          0.94279518	          0.42419870	
          1.03519560	         -3.38831890	          4.08863715	          0.96223396	         26.08851821	        -65.04982600	          1.51134181	         22.36165799	        -37.98016302	         13.09556658	        -11.94299223	         42.46433056	         42.46433056	          0.32422786	          0.99999655	          0.05000009	          0.65086232	          0.65311960	          0.05000005	          0.52174383	          0.05000160	          0.74087485	          0.38306587	          0.07459925	          0.99661874	          0.05000004	          0.05526025	          0.98049602	          0.94279502	          0.95973792	          0.38381979	
